<svg width="20" height="20" viewBox="0 0 20 20" fill="none" xmlns="http://www.w3.org/2000/svg">
<g clip-path="url(#clip0_68_277)">
<rect x="4.44444" y="4.44445" width="11.1111" height="12.2222" fill="white"/>
<path d="M9.99999 0C4.4775 0 0 4.4775 0 9.99999C0 15.5225 4.4775 20 9.99999 20C15.5225 20 20 15.5225 20 9.99999C20 4.4775 15.5225 0 9.99999 0ZM6.585 5.58083H13.415C14.6692 5.58083 15.4667 6.93749 14.8358 8.03083L10.62 15.335C10.557 15.4436 10.4666 15.5338 10.3578 15.5965C10.2489 15.6592 10.1256 15.6922 9.99999 15.6922C9.87441 15.6922 9.75103 15.6592 9.64222 15.5965C9.53341 15.5338 9.44298 15.4436 9.37999 15.335L5.16583 8.03083C4.53416 6.93583 5.33 5.58083 6.585 5.58083ZM10.6217 6.82749V13.1442L11.54 11.3708L13.7533 7.40749C13.7872 7.34829 13.8049 7.2812 13.8045 7.21298C13.8042 7.14477 13.7858 7.07786 13.7513 7.01901C13.7168 6.96016 13.6674 6.91146 13.6081 6.87783C13.5487 6.84421 13.4815 6.82684 13.4133 6.82749H10.6217ZM6.58333 6.82916C6.51526 6.82842 6.44821 6.84567 6.38894 6.87915C6.32968 6.91263 6.2803 6.96116 6.2458 7.01984C6.21131 7.07852 6.19291 7.14527 6.19248 7.21333C6.19204 7.2814 6.20958 7.34838 6.24333 7.40749L8.45833 11.3692L9.37666 13.1442V6.82916H6.58333Z" fill="#0077FF"/>
</g>
<defs>
<clipPath id="clip0_68_277">
<rect width="20" height="20" fill="white"/>
</clipPath>
</defs>
</svg>
