<svg width="18" height="18" viewBox="0 0 18 18" fill="none" xmlns="http://www.w3.org/2000/svg">
<g clip-path="url(#clip0_68_245)">
<rect x="4" y="4" width="10" height="11" fill="white"/>
<path d="M9 0C4.02975 0 0 4.02975 0 9C0 13.9703 4.02975 18 9 18C13.9703 18 18 13.9703 18 9C18 4.02975 13.9703 0 9 0ZM5.9265 5.02275H12.0735C13.2022 5.02275 13.92 6.24375 13.3522 7.22775L9.558 13.8015C9.50131 13.8993 9.41992 13.9804 9.32199 14.0369C9.22406 14.0933 9.11302 14.123 9 14.123C8.88698 14.123 8.77594 14.0933 8.67801 14.0369C8.58008 13.9804 8.49869 13.8993 8.442 13.8015L4.64925 7.22775C4.08075 6.24225 4.797 5.02275 5.9265 5.02275ZM9.5595 6.14475V11.8298L10.386 10.2338L12.378 6.66675C12.4085 6.61347 12.4244 6.55308 12.4241 6.49169C12.4238 6.4303 12.4072 6.37008 12.3762 6.31711C12.3452 6.26415 12.3007 6.22032 12.2473 6.19006C12.1938 6.15979 12.1334 6.14416 12.072 6.14475H9.5595ZM5.925 6.14625C5.86374 6.14559 5.80339 6.1611 5.75005 6.19124C5.69672 6.22137 5.65228 6.26505 5.62123 6.31786C5.59018 6.37067 5.57362 6.43075 5.57323 6.49201C5.57284 6.55327 5.58863 6.61355 5.619 6.66675L7.6125 10.2323L8.439 11.8298V6.14625H5.925Z" fill="#0077FF"/>
</g>
<defs>
<clipPath id="clip0_68_245">
<rect width="18" height="18" fill="white"/>
</clipPath>
</defs>
</svg>
