<svg width="24" height="24" viewBox="0 0 24 24" fill="none" xmlns="http://www.w3.org/2000/svg">
<path fill-rule="evenodd" clip-rule="evenodd" d="M22 12C22 6.477 17.523 2 12 2C6.477 2 2 6.477 2 12C2 17.523 6.477 22 12 22C17.523 22 22 17.523 22 12ZM8.47 10.97C8.39631 11.0387 8.33721 11.1215 8.29622 11.2135C8.25523 11.3055 8.23318 11.4048 8.23141 11.5055C8.22963 11.6062 8.24816 11.7062 8.28588 11.7996C8.3236 11.893 8.37974 11.9778 8.45096 12.049C8.52218 12.1203 8.60701 12.1764 8.7004 12.2141C8.79379 12.2518 8.89382 12.2704 8.99452 12.2686C9.09522 12.2668 9.19454 12.2448 9.28654 12.2038C9.37854 12.1628 9.46134 12.1037 9.53 12.03L12 9.56L14.47 12.03C14.5387 12.1037 14.6215 12.1628 14.7135 12.2038C14.8055 12.2448 14.9048 12.2668 15.0055 12.2686C15.1062 12.2704 15.2062 12.2518 15.2996 12.2141C15.393 12.1764 15.4778 12.1203 15.549 12.049C15.6203 11.9778 15.6764 11.893 15.7141 11.7996C15.7518 11.7062 15.7704 11.6062 15.7686 11.5055C15.7668 11.4048 15.7448 11.3055 15.7038 11.2135C15.6628 11.1215 15.6037 11.0387 15.53 10.97L12.53 7.97C12.3894 7.82955 12.1988 7.75066 12 7.75066C11.8012 7.75066 11.6106 7.82955 11.47 7.97L8.47 10.97ZM8.47 16.03C8.32955 15.8894 8.25066 15.6988 8.25066 15.5C8.25066 15.3012 8.32955 15.1106 8.47 14.97L11.47 11.97C11.6106 11.8295 11.8012 11.7507 12 11.7507C12.1988 11.7507 12.3894 11.8295 12.53 11.97L15.53 14.97C15.6625 15.1122 15.7346 15.3002 15.7312 15.4945C15.7277 15.6888 15.649 15.8742 15.5116 16.0116C15.3742 16.149 15.1888 16.2277 14.9945 16.2312C14.8002 16.2346 14.6122 16.1625 14.47 16.03L12 13.56L9.53 16.03C9.38937 16.1705 9.19875 16.2493 9 16.2493C8.80125 16.2493 8.61063 16.1705 8.47 16.03Z" fill="white"/>
</svg>
