<svg width="358" height="160" viewBox="0 0 358 160" fill="none" xmlns="http://www.w3.org/2000/svg">
<rect width="358" height="160" rx="16" fill="#15151A"/>
<path opacity="0.5" d="M24.8608 26V17.2727H28.2017C28.8324 17.2727 29.3565 17.3722 29.7741 17.571C30.1946 17.767 30.5085 18.0355 30.7159 18.3764C30.9261 18.7173 31.0312 19.1037 31.0312 19.5355C31.0312 19.8906 30.9631 20.1946 30.8267 20.4474C30.6903 20.6974 30.5071 20.9006 30.277 21.0568C30.0469 21.2131 29.7898 21.3253 29.5057 21.3935V21.4787C29.8153 21.4957 30.1122 21.5909 30.3963 21.7642C30.6832 21.9347 30.9176 22.1761 31.0994 22.4886C31.2813 22.8011 31.3722 23.179 31.3722 23.6222C31.3722 24.0739 31.2628 24.4801 31.044 24.8409C30.8253 25.1989 30.4957 25.4815 30.0554 25.6889C29.6151 25.8963 29.0611 26 28.3935 26H24.8608ZM26.4418 24.679H28.142C28.7159 24.679 29.1293 24.5696 29.3821 24.3509C29.6378 24.1293 29.7656 23.8452 29.7656 23.4986C29.7656 23.2401 29.7017 23.0071 29.5739 22.7997C29.446 22.5895 29.2642 22.4247 29.0284 22.3054C28.7926 22.1832 28.5114 22.1222 28.1847 22.1222H26.4418V24.679ZM26.4418 20.9844H28.0057C28.2784 20.9844 28.5241 20.9347 28.7429 20.8352C28.9616 20.733 29.1335 20.5895 29.2585 20.4048C29.3864 20.2173 29.4503 19.9957 29.4503 19.7401C29.4503 19.402 29.331 19.1236 29.0923 18.9048C28.8565 18.6861 28.5057 18.5767 28.0398 18.5767H26.4418V20.9844ZM35.3371 26.1278C34.6808 26.1278 34.114 25.9915 33.6368 25.7188C33.1623 25.4432 32.7973 25.054 32.5416 24.5511C32.2859 24.0455 32.1581 23.4503 32.1581 22.7656C32.1581 22.0923 32.2859 21.5014 32.5416 20.9929C32.8001 20.4815 33.1609 20.0838 33.624 19.7997C34.0871 19.5128 34.6311 19.3693 35.2561 19.3693C35.6595 19.3693 36.0402 19.4347 36.3981 19.5653C36.7589 19.6932 37.0771 19.892 37.3527 20.1619C37.6311 20.4318 37.8498 20.7756 38.0089 21.1932C38.168 21.608 38.2476 22.1023 38.2476 22.6761V23.1491H32.8825V22.1094H36.7689C36.766 21.8139 36.7021 21.5511 36.5771 21.321C36.4521 21.0881 36.2774 20.9048 36.053 20.7713C35.8314 20.6378 35.5729 20.571 35.2774 20.571C34.9621 20.571 34.6851 20.6477 34.4464 20.8011C34.2078 20.9517 34.0217 21.1506 33.8882 21.3977C33.7575 21.642 33.6908 21.9105 33.6879 22.2031V23.1108C33.6879 23.4915 33.7575 23.8182 33.8967 24.0909C34.0359 24.3608 34.2305 24.5682 34.4805 24.7131C34.7305 24.8551 35.0231 24.9261 35.3584 24.9261C35.5828 24.9261 35.7859 24.8949 35.9677 24.8324C36.1496 24.767 36.3072 24.6719 36.4408 24.5469C36.5743 24.4219 36.6751 24.267 36.7433 24.0824L38.1837 24.2443C38.0927 24.625 37.9194 24.9574 37.6638 25.2415C37.4109 25.5227 37.0871 25.7415 36.6922 25.8977C36.2973 26.0511 35.8456 26.1278 35.3371 26.1278ZM42.5811 19.4545V20.6477H38.8183V19.4545H42.5811ZM39.7473 17.8864H41.2899V24.0312C41.2899 24.2386 41.3211 24.3977 41.3836 24.5085C41.449 24.6165 41.5342 24.6903 41.6393 24.7301C41.7444 24.7699 41.8609 24.7898 41.9888 24.7898C42.0853 24.7898 42.1734 24.7827 42.253 24.7685C42.3353 24.7543 42.3978 24.7415 42.4405 24.7301L42.7004 25.9361C42.618 25.9645 42.5001 25.9957 42.3467 26.0298C42.1961 26.0639 42.0115 26.0838 41.7927 26.0895C41.4064 26.1009 41.0584 26.0426 40.7487 25.9148C40.439 25.7841 40.1933 25.5824 40.0115 25.3097C39.8325 25.0369 39.7444 24.696 39.7473 24.2869V17.8864Z" fill="white"/>
<rect x="24" y="32" width="200" height="39" rx="16" fill="#19191F"/>
<path d="M45.6905 57.1591C44.8724 57.1591 44.1451 57.0189 43.5087 56.7386C42.8761 56.4583 42.3761 56.0682 42.0087 55.5682C41.6413 55.0682 41.4462 54.4905 41.4235 53.8352H43.5599C43.5788 54.1496 43.683 54.4242 43.8724 54.6591C44.0618 54.8902 44.3136 55.0701 44.628 55.1989C44.9424 55.3277 45.2947 55.392 45.6849 55.392C46.1015 55.392 46.4708 55.3201 46.7928 55.1761C47.1148 55.0284 47.3667 54.8239 47.5485 54.5625C47.7303 54.3011 47.8193 54 47.8155 53.6591C47.8193 53.3068 47.7284 52.9962 47.5428 52.7273C47.3572 52.4583 47.0883 52.2481 46.736 52.0966C46.3875 51.9451 45.9671 51.8693 45.4746 51.8693H44.4462V50.2443H45.4746C45.8799 50.2443 46.2341 50.1742 46.5371 50.0341C46.8439 49.8939 47.0845 49.697 47.2587 49.4432C47.433 49.1856 47.5182 48.8883 47.5144 48.5511C47.5182 48.2216 47.4443 47.9356 47.2928 47.6932C47.1451 47.447 46.9349 47.2557 46.6621 47.1193C46.3932 46.983 46.0769 46.9148 45.7133 46.9148C45.3572 46.9148 45.0277 46.9792 44.7246 47.108C44.4216 47.2367 44.1773 47.4205 43.9917 47.6591C43.8061 47.8939 43.7076 48.1742 43.6962 48.5H41.6678C41.683 47.8485 41.8705 47.2765 42.2303 46.7841C42.5939 46.2879 43.0788 45.9015 43.6849 45.625C44.2909 45.3447 44.9708 45.2045 45.7246 45.2045C46.5011 45.2045 47.1754 45.3504 47.7474 45.642C48.3231 45.9299 48.7682 46.3182 49.0826 46.8068C49.397 47.2955 49.5542 47.8352 49.5542 48.4261C49.558 49.0814 49.3648 49.6307 48.9746 50.0739C48.5883 50.517 48.0807 50.8068 47.4519 50.9432V51.0341C48.2701 51.1477 48.897 51.4508 49.3326 51.9432C49.772 52.4318 49.9898 53.0398 49.986 53.767C49.986 54.4186 49.8004 55.0019 49.4292 55.517C49.0618 56.0284 48.5542 56.4299 47.9064 56.7216C47.2625 57.0133 46.5239 57.1591 45.6905 57.1591ZM51.6163 57V55.4773L55.6561 51.517C56.0424 51.1269 56.3644 50.7803 56.622 50.4773C56.8795 50.1742 57.0727 49.8807 57.2015 49.5966C57.3303 49.3125 57.3947 49.0095 57.3947 48.6875C57.3947 48.3201 57.3114 48.0057 57.1447 47.7443C56.978 47.4792 56.7489 47.2746 56.4572 47.1307C56.1655 46.9867 55.8341 46.9148 55.4629 46.9148C55.0803 46.9148 54.7451 46.9943 54.4572 47.1534C54.1693 47.3087 53.9458 47.5303 53.7867 47.8182C53.6314 48.1061 53.5538 48.4489 53.5538 48.8466H51.5481C51.5481 48.108 51.7167 47.4659 52.0538 46.9205C52.3909 46.375 52.8549 45.9527 53.4458 45.6534C54.0405 45.3542 54.7223 45.2045 55.4913 45.2045C56.2716 45.2045 56.9572 45.3504 57.5481 45.642C58.139 45.9337 58.5973 46.3333 58.9231 46.8409C59.2526 47.3485 59.4174 47.928 59.4174 48.5795C59.4174 49.0152 59.3341 49.4432 59.1674 49.8636C59.0007 50.2841 58.7072 50.75 58.2867 51.2614C57.8701 51.7727 57.2848 52.392 56.5311 53.1193L54.5254 55.1591V55.2386H59.5936V57H51.6163Z" fill="white"/>
<g clip-path="url(#clip0_68_1208)">
<rect x="71" y="46.5" width="10" height="11" fill="white"/>
<path d="M76 42.5C71.0298 42.5 67 46.5298 67 51.5C67 56.4702 71.0298 60.5 76 60.5C80.9702 60.5 85 56.4702 85 51.5C85 46.5298 80.9702 42.5 76 42.5ZM72.9265 47.5228H79.0735C80.2022 47.5228 80.92 48.7438 80.3522 49.7278L76.558 56.3015C76.5013 56.3993 76.4199 56.4804 76.322 56.5369C76.2241 56.5933 76.113 56.623 76 56.623C75.887 56.623 75.7759 56.5933 75.678 56.5369C75.5801 56.4804 75.4987 56.3993 75.442 56.3015L71.6492 49.7278C71.0807 48.7423 71.797 47.5228 72.9265 47.5228ZM76.5595 48.6447V54.3297L77.386 52.7338L79.378 49.1667C79.4085 49.1135 79.4244 49.0531 79.4241 48.9917C79.4238 48.9303 79.4072 48.8701 79.3762 48.8171C79.3452 48.7642 79.3007 48.7203 79.2473 48.6901C79.1938 48.6598 79.1334 48.6442 79.072 48.6447H76.5595ZM72.925 48.6462C72.8637 48.6456 72.8034 48.6611 72.7501 48.6912C72.6967 48.7214 72.6523 48.7651 72.6212 48.8179C72.5902 48.8707 72.5736 48.9307 72.5732 48.992C72.5728 49.0533 72.5886 49.1135 72.619 49.1667L74.6125 52.7322L75.439 54.3297V48.6462H72.925Z" fill="#0077FF"/>
</g>
<rect x="229" y="32" width="50" height="39" rx="16" fill="#19191F"/>
<path d="M249.072 49.4545L250.393 51.8707L251.736 49.4545H253.368L251.395 52.7273L253.402 56H251.778L250.393 53.6435L249.021 56H247.385L249.379 52.7273L247.436 49.4545H249.072ZM254.304 56V54.858L257.334 51.8878C257.624 51.5952 257.865 51.3352 258.058 51.108C258.251 50.8807 258.396 50.6605 258.493 50.4474C258.59 50.2344 258.638 50.0071 258.638 49.7656C258.638 49.4901 258.575 49.2543 258.45 49.0582C258.325 48.8594 258.153 48.706 257.935 48.598C257.716 48.4901 257.467 48.4361 257.189 48.4361C256.902 48.4361 256.651 48.4957 256.435 48.6151C256.219 48.7315 256.051 48.8977 255.932 49.1136C255.815 49.3295 255.757 49.5866 255.757 49.8849H254.253C254.253 49.331 254.379 48.8494 254.632 48.4403C254.885 48.0312 255.233 47.7145 255.676 47.4901C256.122 47.2656 256.634 47.1534 257.21 47.1534C257.795 47.1534 258.31 47.2628 258.753 47.4815C259.196 47.7003 259.54 48 259.784 48.3807C260.031 48.7614 260.155 49.196 260.155 49.6847C260.155 50.0114 260.092 50.3324 259.967 50.6477C259.842 50.9631 259.622 51.3125 259.307 51.696C258.994 52.0795 258.555 52.544 257.99 53.0895L256.486 54.6193V54.679H260.287V56H254.304Z" fill="white"/>
<rect x="284" y="32" width="50" height="39" rx="16" fill="#19191F"/>
<path d="M307.475 46.8636L304.663 57.3125H303.312L306.124 46.8636H307.475ZM308.202 56V54.858L311.232 51.8878C311.522 51.5952 311.764 51.3352 311.957 51.108C312.15 50.8807 312.295 50.6605 312.391 50.4474C312.488 50.2344 312.536 50.0071 312.536 49.7656C312.536 49.4901 312.474 49.2543 312.349 49.0582C312.224 48.8594 312.052 48.706 311.833 48.598C311.614 48.4901 311.366 48.4361 311.087 48.4361C310.8 48.4361 310.549 48.4957 310.333 48.6151C310.117 48.7315 309.95 48.8977 309.83 49.1136C309.714 49.3295 309.656 49.5866 309.656 49.8849H308.151C308.151 49.331 308.278 48.8494 308.531 48.4403C308.783 48.0312 309.131 47.7145 309.575 47.4901C310.021 47.2656 310.532 47.1534 311.109 47.1534C311.694 47.1534 312.208 47.2628 312.651 47.4815C313.094 47.7003 313.438 48 313.683 48.3807C313.93 48.7614 314.053 49.196 314.053 49.6847C314.053 50.0114 313.991 50.3324 313.866 50.6477C313.741 50.9631 313.521 51.3125 313.205 51.696C312.893 52.0795 312.454 52.544 311.889 53.0895L310.384 54.6193V54.679H314.185V56H308.202Z" fill="white"/>
<path opacity="0.5" d="M25.9815 96H24.294L27.3665 87.2727H29.3182L32.3949 96H30.7074L28.3764 89.0625H28.3082L25.9815 96ZM26.0369 92.5781H30.6392V93.848H26.0369V92.5781ZM37.4081 93.2472V89.4545H38.9507V96H37.455V94.8366H37.3868C37.239 95.2031 36.9962 95.5028 36.6581 95.7358C36.3229 95.9687 35.9095 96.0852 35.418 96.0852C34.989 96.0852 34.6098 95.9901 34.2802 95.7997C33.9535 95.6065 33.6979 95.3267 33.5132 94.9602C33.3285 94.5909 33.2362 94.1449 33.2362 93.6222V89.4545H34.7788V93.3835C34.7788 93.7983 34.8925 94.1278 35.1197 94.3722C35.347 94.6165 35.6453 94.7386 36.0146 94.7386C36.2419 94.7386 36.4621 94.6832 36.6751 94.5724C36.8882 94.4616 37.0629 94.2969 37.1993 94.0781C37.3385 93.8565 37.4081 93.5795 37.4081 93.2472ZM43.5655 89.4545V90.6477H39.8027V89.4545H43.5655ZM40.7316 87.8864H42.2743V94.0312C42.2743 94.2386 42.3055 94.3977 42.368 94.5085C42.4334 94.6165 42.5186 94.6903 42.6237 94.7301C42.7288 94.7699 42.8453 94.7898 42.9731 94.7898C43.0697 94.7898 43.1578 94.7827 43.2373 94.7685C43.3197 94.7543 43.3822 94.7415 43.4248 94.7301L43.6848 95.9361C43.6024 95.9645 43.4845 95.9957 43.3311 96.0298C43.1805 96.0639 42.9959 96.0838 42.7771 96.0895C42.3907 96.1009 42.0427 96.0426 41.7331 95.9148C41.4234 95.7841 41.1777 95.5824 40.9959 95.3097C40.8169 95.0369 40.7288 94.696 40.7316 94.2869V87.8864ZM47.4004 96.1278C46.7612 96.1278 46.2072 95.9872 45.7385 95.706C45.2697 95.4247 44.9061 95.0312 44.6475 94.5256C44.3919 94.0199 44.264 93.429 44.264 92.7528C44.264 92.0767 44.3919 91.4844 44.6475 90.9759C44.9061 90.4673 45.2697 90.0724 45.7385 89.7912C46.2072 89.5099 46.7612 89.3693 47.4004 89.3693C48.0396 89.3693 48.5936 89.5099 49.0623 89.7912C49.5311 90.0724 49.8933 90.4673 50.149 90.9759C50.4075 91.4844 50.5367 92.0767 50.5367 92.7528C50.5367 93.429 50.4075 94.0199 50.149 94.5256C49.8933 95.0312 49.5311 95.4247 49.0623 95.706C48.5936 95.9872 48.0396 96.1278 47.4004 96.1278ZM47.4089 94.892C47.7555 94.892 48.0453 94.7969 48.2782 94.6065C48.5112 94.4134 48.6845 94.1548 48.7981 93.831C48.9146 93.5071 48.9728 93.1463 48.9728 92.7486C48.9728 92.348 48.9146 91.9858 48.7981 91.6619C48.6845 91.3352 48.5112 91.0753 48.2782 90.8821C48.0453 90.6889 47.7555 90.5923 47.4089 90.5923C47.0538 90.5923 46.7583 90.6889 46.5225 90.8821C46.2896 91.0753 46.1149 91.3352 45.9984 91.6619C45.8848 91.9858 45.8279 92.348 45.8279 92.7486C45.8279 93.1463 45.8848 93.5071 45.9984 93.831C46.1149 94.1548 46.2896 94.4134 46.5225 94.6065C46.7583 94.7969 47.0538 94.892 47.4089 94.892ZM55.5734 91.7301V93H51.6444V91.7301H55.5734ZM59.811 96.1278C59.1576 96.1278 58.5965 95.9844 58.1278 95.6974C57.6619 95.4105 57.3025 95.0142 57.0496 94.5085C56.7996 94 56.6746 93.4148 56.6746 92.7528C56.6746 92.0881 56.8025 91.5014 57.0582 90.9929C57.3138 90.4815 57.6746 90.0838 58.1406 89.7997C58.6093 89.5128 59.1633 89.3693 59.8025 89.3693C60.3337 89.3693 60.8039 89.4673 61.213 89.6634C61.6249 89.8565 61.9531 90.1307 62.1974 90.4858C62.4417 90.8381 62.5809 91.25 62.615 91.7216H61.1406C61.0809 91.4062 60.9388 91.1435 60.7144 90.9332C60.4928 90.7202 60.196 90.6136 59.8238 90.6136C59.5085 90.6136 59.2315 90.6989 58.9928 90.8693C58.7542 91.0369 58.5681 91.2784 58.4346 91.5938C58.3039 91.9091 58.2386 92.2869 58.2386 92.7273C58.2386 93.1733 58.3039 93.5568 58.4346 93.8778C58.5653 94.196 58.7485 94.4418 58.9843 94.6151C59.2229 94.7855 59.5028 94.8707 59.8238 94.8707C60.0511 94.8707 60.2542 94.8281 60.4332 94.7429C60.615 94.6548 60.767 94.5284 60.8891 94.3636C61.0113 94.1989 61.0951 93.9986 61.1406 93.7628H62.615C62.5781 94.2259 62.4417 94.6364 62.2059 94.9943C61.9701 95.3494 61.6491 95.6278 61.2428 95.8295C60.8366 96.0284 60.3593 96.1278 59.811 96.1278ZM65.5252 96.1321C65.1104 96.1321 64.7368 96.0582 64.4045 95.9105C64.0749 95.7599 63.8136 95.5384 63.6204 95.2457C63.43 94.9531 63.3349 94.5923 63.3349 94.1634C63.3349 93.794 63.403 93.4886 63.5394 93.2472C63.6758 93.0057 63.8618 92.8125 64.0976 92.6676C64.3334 92.5227 64.5991 92.4134 64.8945 92.3395C65.1928 92.2628 65.5011 92.2074 65.8192 92.1733C66.2028 92.1335 66.5138 92.098 66.7525 92.0668C66.9911 92.0327 67.1644 91.9815 67.2724 91.9134C67.3832 91.8423 67.4386 91.733 67.4386 91.5852V91.5597C67.4386 91.2386 67.3434 90.9901 67.153 90.8139C66.9627 90.6378 66.6886 90.5497 66.3306 90.5497C65.9528 90.5497 65.653 90.6321 65.4315 90.7969C65.2127 90.9616 65.065 91.1562 64.9883 91.3807L63.5479 91.1761C63.6616 90.7784 63.8491 90.446 64.1104 90.179C64.3718 89.9091 64.6914 89.7074 65.0692 89.5739C65.4471 89.4375 65.8647 89.3693 66.3221 89.3693C66.6374 89.3693 66.9513 89.4062 67.2638 89.4801C67.5763 89.554 67.8618 89.6761 68.1204 89.8466C68.3789 90.0142 68.5863 90.2429 68.7425 90.5327C68.9016 90.8224 68.9812 91.1847 68.9812 91.6193V96H67.4982V95.1009H67.4471C67.3533 95.2827 67.2212 95.4531 67.0508 95.6122C66.8832 95.7685 66.6715 95.8949 66.4158 95.9915C66.163 96.0852 65.8661 96.1321 65.5252 96.1321ZM65.9258 94.9986C66.2354 94.9986 66.5039 94.9375 66.7312 94.8153C66.9584 94.6903 67.1332 94.5256 67.2553 94.321C67.3803 94.1165 67.4428 93.8935 67.4428 93.652V92.8807C67.3945 92.9205 67.3121 92.9574 67.1957 92.9915C67.082 93.0256 66.9542 93.0554 66.8121 93.081C66.6701 93.1065 66.5295 93.1293 66.3903 93.1491C66.2511 93.169 66.1303 93.1861 66.028 93.2003C65.7979 93.2315 65.592 93.2827 65.4101 93.3537C65.2283 93.4247 65.0849 93.5241 64.9797 93.652C64.8746 93.777 64.8221 93.9389 64.8221 94.1378C64.8221 94.4219 64.9258 94.6364 65.1332 94.7812C65.3405 94.9261 65.6047 94.9986 65.9258 94.9986ZM75.4656 91.1847L74.0593 91.3381C74.0196 91.196 73.95 91.0625 73.8505 90.9375C73.7539 90.8125 73.6233 90.7116 73.4585 90.6349C73.2937 90.5582 73.092 90.5199 72.8534 90.5199C72.5324 90.5199 72.2625 90.5895 72.0437 90.7287C71.8278 90.8679 71.7213 91.0483 71.7241 91.2699C71.7213 91.4602 71.7909 91.6151 71.9329 91.7344C72.0778 91.8537 72.3164 91.9517 72.6488 92.0284L73.7653 92.267C74.3846 92.4006 74.8449 92.6122 75.146 92.902C75.45 93.1918 75.6034 93.571 75.6062 94.0398C75.6034 94.4517 75.4826 94.8153 75.244 95.1307C75.0082 95.4432 74.6801 95.6875 74.2596 95.8636C73.8392 96.0398 73.3562 96.1278 72.8108 96.1278C72.0096 96.1278 71.3647 95.9602 70.8761 95.625C70.3875 95.2869 70.0963 94.8168 70.0025 94.2145L71.5068 94.0696C71.575 94.3651 71.7199 94.5881 71.9414 94.7386C72.163 94.8892 72.4514 94.9645 72.8065 94.9645C73.173 94.9645 73.467 94.8892 73.6886 94.7386C73.913 94.5881 74.0253 94.402 74.0253 94.1804C74.0253 93.9929 73.9528 93.8381 73.8079 93.7159C73.6659 93.5937 73.4443 93.5 73.1432 93.4347L72.0267 93.2003C71.3988 93.0696 70.9343 92.8494 70.6332 92.5398C70.3321 92.2273 70.1829 91.8324 70.1858 91.3551C70.1829 90.9517 70.2923 90.6023 70.5139 90.3068C70.7383 90.0085 71.0494 89.7784 71.4471 89.6165C71.8477 89.4517 72.3093 89.3693 72.8321 89.3693C73.5991 89.3693 74.2028 89.5327 74.6432 89.8594C75.0863 90.1861 75.3605 90.6278 75.4656 91.1847ZM78.1809 92.1648V96H76.6382V87.2727H78.1468V90.5668H78.2235C78.3769 90.1974 78.6141 89.9062 78.9351 89.6932C79.259 89.4773 79.6709 89.3693 80.1709 89.3693C80.6255 89.3693 81.0218 89.4645 81.3598 89.6548C81.6979 89.8452 81.9593 90.1236 82.1439 90.4901C82.3314 90.8565 82.4252 91.304 82.4252 91.8324V96H80.8826V92.071C80.8826 91.6307 80.7689 91.2884 80.5416 91.044C80.3172 90.7969 80.0019 90.6733 79.5956 90.6733C79.3229 90.6733 79.0786 90.733 78.8627 90.8523C78.6496 90.9687 78.482 91.1378 78.3598 91.3594C78.2405 91.581 78.1809 91.8494 78.1809 92.1648ZM86.6127 96.1278C85.9735 96.1278 85.4195 95.9872 84.9508 95.706C84.482 95.4247 84.1184 95.0312 83.8599 94.5256C83.6042 94.0199 83.4764 93.429 83.4764 92.7528C83.4764 92.0767 83.6042 91.4844 83.8599 90.9759C84.1184 90.4673 84.482 90.0724 84.9508 89.7912C85.4195 89.5099 85.9735 89.3693 86.6127 89.3693C87.2519 89.3693 87.8059 89.5099 88.2747 89.7912C88.7434 90.0724 89.1056 90.4673 89.3613 90.9759C89.6198 91.4844 89.7491 92.0767 89.7491 92.7528C89.7491 93.429 89.6198 94.0199 89.3613 94.5256C89.1056 95.0312 88.7434 95.4247 88.2747 95.706C87.8059 95.9872 87.2519 96.1278 86.6127 96.1278ZM86.6213 94.892C86.9678 94.892 87.2576 94.7969 87.4906 94.6065C87.7235 94.4134 87.8968 94.1548 88.0105 93.831C88.1269 93.5071 88.1852 93.1463 88.1852 92.7486C88.1852 92.348 88.1269 91.9858 88.0105 91.6619C87.8968 91.3352 87.7235 91.0753 87.4906 90.8821C87.2576 90.6889 86.9678 90.5923 86.6213 90.5923C86.2661 90.5923 85.9707 90.6889 85.7349 90.8821C85.5019 91.0753 85.3272 91.3352 85.2107 91.6619C85.0971 91.9858 85.0403 92.348 85.0403 92.7486C85.0403 93.1463 85.0971 93.5071 85.2107 93.831C85.3272 94.1548 85.5019 94.4134 85.7349 94.6065C85.9707 94.7969 86.2661 94.892 86.6213 94.892ZM94.9903 93.2472V89.4545H96.5329V96H95.0371V94.8366H94.969C94.8212 95.2031 94.5783 95.5028 94.2403 95.7358C93.905 95.9687 93.4917 96.0852 93.0002 96.0852C92.5712 96.0852 92.192 95.9901 91.8624 95.7997C91.5357 95.6065 91.28 95.3267 91.0954 94.9602C90.9107 94.5909 90.8184 94.1449 90.8184 93.6222V89.4545H92.361V93.3835C92.361 93.7983 92.4746 94.1278 92.7019 94.3722C92.9292 94.6165 93.2275 94.7386 93.5968 94.7386C93.8241 94.7386 94.0442 94.6832 94.2573 94.5724C94.4704 94.4616 94.6451 94.2969 94.7815 94.0781C94.9207 93.8565 94.9903 93.5795 94.9903 93.2472ZM101.148 89.4545V90.6477H97.3849V89.4545H101.148ZM98.3138 87.8864H99.8564V94.0312C99.8564 94.2386 99.8877 94.3977 99.9502 94.5085C100.016 94.6165 100.101 94.6903 100.206 94.7301C100.311 94.7699 100.427 94.7898 100.555 94.7898C100.652 94.7898 100.74 94.7827 100.82 94.7685C100.902 94.7543 100.964 94.7415 101.007 94.7301L101.267 95.9361C101.185 95.9645 101.067 95.9957 100.913 96.0298C100.763 96.0639 100.578 96.0838 100.359 96.0895C99.9729 96.1009 99.6249 96.0426 99.3153 95.9148C99.0056 95.7841 98.7599 95.5824 98.578 95.3097C98.3991 95.0369 98.311 94.696 98.3138 94.2869V87.8864Z" fill="white"/>
<rect x="24" y="107" width="200" height="39" rx="16" fill="#19191F"/>
<path d="M42.9299 123.273L44.6912 126.494L46.481 123.273H48.6572L46.0265 127.636L48.7026 132H46.5378L44.6912 128.858L42.8617 132H40.6799L43.339 127.636L40.7481 123.273H42.9299ZM49.9053 132V130.477L53.9451 126.517C54.3315 126.127 54.6534 125.78 54.911 125.477C55.1686 125.174 55.3618 124.881 55.4906 124.597C55.6194 124.312 55.6838 124.009 55.6838 123.688C55.6838 123.32 55.6004 123.006 55.4338 122.744C55.2671 122.479 55.0379 122.275 54.7463 122.131C54.4546 121.987 54.1231 121.915 53.7519 121.915C53.3694 121.915 53.0341 121.994 52.7463 122.153C52.4584 122.309 52.2349 122.53 52.0758 122.818C51.9205 123.106 51.8428 123.449 51.8428 123.847H49.8372C49.8372 123.108 50.0057 122.466 50.3428 121.92C50.68 121.375 51.144 120.953 51.7349 120.653C52.3296 120.354 53.0114 120.205 53.7803 120.205C54.5606 120.205 55.2463 120.35 55.8372 120.642C56.4281 120.934 56.8864 121.333 57.2122 121.841C57.5417 122.348 57.7065 122.928 57.7065 123.58C57.7065 124.015 57.6231 124.443 57.4565 124.864C57.2898 125.284 56.9963 125.75 56.5758 126.261C56.1591 126.773 55.5739 127.392 54.8201 128.119L52.8144 130.159V130.239H57.8826V132H49.9053Z" fill="white"/>
<rect x="228" y="107" width="106" height="39" rx="16" fill="#C4FF00" fill-opacity="0.1"/>
<path d="M280.793 126.636C280.793 127.588 280.613 128.398 280.252 129.065C279.894 129.733 279.405 130.243 278.786 130.595C278.169 130.945 277.476 131.119 276.706 131.119C275.931 131.119 275.235 130.943 274.618 130.591C274.002 130.239 273.515 129.729 273.157 129.061C272.799 128.393 272.62 127.585 272.62 126.636C272.62 125.685 272.799 124.875 273.157 124.207C273.515 123.54 274.002 123.031 274.618 122.682C275.235 122.33 275.931 122.153 276.706 122.153C277.476 122.153 278.169 122.33 278.786 122.682C279.405 123.031 279.894 123.54 280.252 124.207C280.613 124.875 280.793 125.685 280.793 126.636ZM278.922 126.636C278.922 126.02 278.83 125.5 278.645 125.077C278.463 124.653 278.206 124.332 277.874 124.114C277.542 123.895 277.152 123.786 276.706 123.786C276.26 123.786 275.871 123.895 275.539 124.114C275.206 124.332 274.948 124.653 274.763 125.077C274.581 125.5 274.49 126.02 274.49 126.636C274.49 127.253 274.581 127.773 274.763 128.196C274.948 128.619 275.206 128.94 275.539 129.159C275.871 129.378 276.26 129.487 276.706 129.487C277.152 129.487 277.542 129.378 277.874 129.159C278.206 128.94 278.463 128.619 278.645 128.196C278.83 127.773 278.922 127.253 278.922 126.636ZM289.219 122.273V131H287.626L283.829 125.507H283.765V131H281.92V122.273H283.539L287.306 127.761H287.383V122.273H289.219Z" fill="#C4FF00"/>
<defs>
<clipPath id="clip0_68_1208">
<rect width="18" height="18" fill="white" transform="translate(67 42.5)"/>
</clipPath>
</defs>
</svg>
