<svg width="553" height="35" viewBox="0 0 553 35" fill="none" xmlns="http://www.w3.org/2000/svg">
<rect width="40" height="35" rx="17.5" fill="#C4FF00" fill-opacity="0.1"/>
<path d="M12.3213 15.4545L13.523 17.7429L14.7546 15.4545H16.6168L14.7205 18.7273L16.6679 22H14.8142L13.523 19.7372L12.2531 22H10.3781L12.3213 18.7273L10.4463 15.4545H12.3213ZM17.4379 22V20.6705L20.5444 17.794C20.8086 17.5384 21.0302 17.3082 21.2092 17.1037C21.391 16.8991 21.5288 16.6989 21.6225 16.5028C21.7163 16.304 21.7631 16.0895 21.7631 15.8594C21.7631 15.6037 21.7049 15.3835 21.5884 15.1989C21.4719 15.0114 21.3129 14.8679 21.1112 14.7685C20.9094 14.6662 20.6808 14.6151 20.4251 14.6151C20.158 14.6151 19.9251 14.669 19.7262 14.777C19.5273 14.8849 19.3739 15.0398 19.266 15.2415C19.158 15.4432 19.104 15.6832 19.104 15.9616H17.3526C17.3526 15.3906 17.4819 14.8949 17.7404 14.4744C17.9989 14.054 18.3612 13.7287 18.8271 13.4986C19.293 13.2685 19.8299 13.1534 20.4379 13.1534C21.0629 13.1534 21.6069 13.2642 22.07 13.4858C22.5359 13.7045 22.8981 14.0085 23.1566 14.3977C23.4151 14.7869 23.5444 15.233 23.5444 15.7358C23.5444 16.0653 23.479 16.3906 23.3484 16.7116C23.2205 17.0327 22.9918 17.3892 22.6623 17.7812C22.3327 18.1705 21.8683 18.6378 21.2688 19.1832L19.9947 20.4318V20.4915H23.6594V22H17.4379ZM28.5533 13.2727V22H26.7082V15.0241H26.657L24.6584 16.277V14.6406L26.8189 13.2727H28.5533Z" fill="#C4FF00"/>
<rect x="48" width="45" height="35" rx="17.5" fill="#151515" fill-opacity="0.666667"/>
<path d="M60.3105 15.4545L61.6315 17.8707L62.9738 15.4545H64.6059L62.6329 18.7273L64.64 22H63.0164L61.6315 19.6435L60.2593 22H58.623L60.6173 18.7273L58.6741 15.4545H60.3105ZM65.5421 22V20.858L68.5719 17.8878C68.8617 17.5952 69.1031 17.3352 69.2963 17.108C69.4895 16.8807 69.6344 16.6605 69.731 16.4474C69.8276 16.2344 69.8759 16.0071 69.8759 15.7656C69.8759 15.4901 69.8134 15.2543 69.6884 15.0582C69.5634 14.8594 69.3915 14.706 69.1727 14.598C68.954 14.4901 68.7054 14.4361 68.427 14.4361C68.1401 14.4361 67.8886 14.4957 67.6727 14.6151C67.4568 14.7315 67.2892 14.8977 67.1699 15.1136C67.0534 15.3295 66.9952 15.5866 66.9952 15.8849H65.4909C65.4909 15.331 65.6173 14.8494 65.8702 14.4403C66.123 14.0312 66.471 13.7145 66.9142 13.4901C67.3602 13.2656 67.8716 13.1534 68.4483 13.1534C69.0335 13.1534 69.5477 13.2628 69.9909 13.4815C70.4341 13.7003 70.7778 14 71.0222 14.3807C71.2693 14.7614 71.3929 15.196 71.3929 15.6847C71.3929 16.0114 71.3304 16.3324 71.2054 16.6477C71.0804 16.9631 70.8602 17.3125 70.5449 17.696C70.2324 18.0795 69.7935 18.544 69.2281 19.0895L67.7239 20.6193V20.679H71.525V22H65.5421ZM73.7225 22.0938C73.464 22.0938 73.2424 22.0028 73.0577 21.821C72.8731 21.6392 72.7822 21.4176 72.785 21.1562C72.7822 20.9006 72.8731 20.6818 73.0577 20.5C73.2424 20.3182 73.464 20.2273 73.7225 20.2273C73.9725 20.2273 74.1898 20.3182 74.3745 20.5C74.562 20.6818 74.6572 20.9006 74.66 21.1562C74.6572 21.3295 74.6117 21.4872 74.5236 21.6293C74.4384 21.7713 74.3248 21.8849 74.1827 21.9702C74.0435 22.0526 73.8901 22.0938 73.7225 22.0938ZM78.8348 22.1193C78.2211 22.1193 77.6757 22.0142 77.1984 21.804C76.724 21.5937 76.349 21.3011 76.0734 20.9261C75.7978 20.5511 75.6515 20.1179 75.6345 19.6264H77.2368C77.251 19.8622 77.3291 20.0682 77.4711 20.2443C77.6132 20.4176 77.8021 20.5526 78.0379 20.6491C78.2737 20.7457 78.5379 20.794 78.8305 20.794C79.143 20.794 79.42 20.7401 79.6615 20.6321C79.903 20.5213 80.0919 20.3679 80.2282 20.1719C80.3646 19.9759 80.4314 19.75 80.4285 19.4943C80.4314 19.2301 80.3632 18.9972 80.224 18.7955C80.0848 18.5937 79.8831 18.4361 79.6189 18.3224C79.3575 18.2088 79.0422 18.152 78.6728 18.152H77.9015V16.9332H78.6728C78.9768 16.9332 79.2424 16.8807 79.4697 16.7756C79.6998 16.6705 79.8802 16.5227 80.0109 16.3324C80.1416 16.1392 80.2055 15.9162 80.2027 15.6634C80.2055 15.4162 80.1501 15.2017 80.0365 15.0199C79.9257 14.8352 79.768 14.6918 79.5635 14.5895C79.3618 14.4872 79.1246 14.4361 78.8518 14.4361C78.5848 14.4361 78.3376 14.4844 78.1103 14.581C77.8831 14.6776 77.6998 14.8153 77.5606 14.9943C77.4214 15.1705 77.3476 15.3807 77.339 15.625H75.8177C75.8291 15.1364 75.9697 14.7074 76.2396 14.3381C76.5123 13.9659 76.876 13.6761 77.3305 13.4688C77.7851 13.2585 78.295 13.1534 78.8603 13.1534C79.4427 13.1534 79.9484 13.2628 80.3774 13.4815C80.8092 13.6974 81.143 13.9886 81.3788 14.3551C81.6146 14.7216 81.7325 15.1264 81.7325 15.5696C81.7353 16.0611 81.5905 16.473 81.2978 16.8054C81.0081 17.1378 80.6274 17.3551 80.1558 17.4574V17.5256C80.7694 17.6108 81.2396 17.8381 81.5663 18.2074C81.8959 18.5739 82.0592 19.0298 82.0564 19.5753C82.0564 20.0639 81.9172 20.5014 81.6388 20.8878C81.3632 21.2713 80.9825 21.5724 80.4967 21.7912C80.0138 22.0099 79.4598 22.1193 78.8348 22.1193Z" fill="white"/>
<rect x="101" width="43" height="35" rx="17.5" fill="#151515" fill-opacity="0.666667"/>
<path d="M113.43 15.4545L114.751 17.8707L116.093 15.4545H117.725L115.752 18.7273L117.759 22H116.136L114.751 19.6435L113.378 22H111.742L113.736 18.7273L111.793 15.4545H113.43ZM122.211 13.2727V22H120.63V14.8111H120.579L118.538 16.1151V14.6662L120.707 13.2727H122.211ZM124.674 22.0938C124.415 22.0938 124.194 22.0028 124.009 21.821C123.824 21.6392 123.733 21.4176 123.736 21.1562C123.733 20.9006 123.824 20.6818 124.009 20.5C124.194 20.3182 124.415 20.2273 124.674 20.2273C124.924 20.2273 125.141 20.3182 125.326 20.5C125.513 20.6818 125.608 20.9006 125.611 21.1562C125.608 21.3295 125.563 21.4872 125.475 21.6293C125.39 21.7713 125.276 21.8849 125.134 21.9702C124.995 22.0526 124.841 22.0938 124.674 22.0938ZM126.947 22V20.858L129.977 17.8878C130.266 17.5952 130.508 17.3352 130.701 17.108C130.894 16.8807 131.039 16.6605 131.136 16.4474C131.232 16.2344 131.281 16.0071 131.281 15.7656C131.281 15.4901 131.218 15.2543 131.093 15.0582C130.968 14.8594 130.796 14.706 130.577 14.598C130.359 14.4901 130.11 14.4361 129.832 14.4361C129.545 14.4361 129.293 14.4957 129.077 14.6151C128.862 14.7315 128.694 14.8977 128.575 15.1136C128.458 15.3295 128.4 15.5866 128.4 15.8849H126.896C126.896 15.331 127.022 14.8494 127.275 14.4403C127.528 14.0312 127.876 13.7145 128.319 13.4901C128.765 13.2656 129.276 13.1534 129.853 13.1534C130.438 13.1534 130.952 13.2628 131.396 13.4815C131.839 13.7003 132.183 14 132.427 14.3807C132.674 14.7614 132.798 15.196 132.798 15.6847C132.798 16.0114 132.735 16.3324 132.61 16.6477C132.485 16.9631 132.265 17.3125 131.95 17.696C131.637 18.0795 131.198 18.544 130.633 19.0895L129.129 20.6193V20.679H132.93V22H126.947Z" fill="white"/>
<rect x="152" width="42" height="35" rx="17.5" fill="#151515" fill-opacity="0.666667"/>
<path d="M164.176 15.4545L165.497 17.8707L166.839 15.4545H168.471L166.498 18.7273L168.505 22H166.882L165.497 19.6435L164.125 22H162.488L164.483 18.7273L162.539 15.4545H164.176ZM172.539 22.1193C171.926 22.1193 171.38 22.0142 170.903 21.804C170.429 21.5937 170.054 21.3011 169.778 20.9261C169.502 20.5511 169.356 20.1179 169.339 19.6264H170.941C170.956 19.8622 171.034 20.0682 171.176 20.2443C171.318 20.4176 171.507 20.5526 171.743 20.6491C171.978 20.7457 172.243 20.794 172.535 20.794C172.848 20.794 173.125 20.7401 173.366 20.6321C173.608 20.5213 173.796 20.3679 173.933 20.1719C174.069 19.9759 174.136 19.75 174.133 19.4943C174.136 19.2301 174.068 18.9972 173.929 18.7955C173.789 18.5937 173.588 18.4361 173.323 18.3224C173.062 18.2088 172.747 18.152 172.377 18.152H171.606V16.9332H172.377C172.681 16.9332 172.947 16.8807 173.174 16.7756C173.404 16.6705 173.585 16.5227 173.716 16.3324C173.846 16.1392 173.91 15.9162 173.907 15.6634C173.91 15.4162 173.855 15.2017 173.741 15.0199C173.63 14.8352 173.473 14.6918 173.268 14.5895C173.066 14.4872 172.829 14.4361 172.556 14.4361C172.289 14.4361 172.042 14.4844 171.815 14.581C171.588 14.6776 171.404 14.8153 171.265 14.9943C171.126 15.1705 171.052 15.3807 171.044 15.625H169.522C169.534 15.1364 169.674 14.7074 169.944 14.3381C170.217 13.9659 170.581 13.6761 171.035 13.4688C171.49 13.2585 172 13.1534 172.565 13.1534C173.147 13.1534 173.653 13.2628 174.082 13.4815C174.514 13.6974 174.848 13.9886 175.083 14.3551C175.319 14.7216 175.437 15.1264 175.437 15.5696C175.44 16.0611 175.295 16.473 175.002 16.8054C174.713 17.1378 174.332 17.3551 173.86 17.4574V17.5256C174.474 17.6108 174.944 17.8381 175.271 18.2074C175.6 18.5739 175.764 19.0298 175.761 19.5753C175.761 20.0639 175.622 20.5014 175.343 20.8878C175.068 21.2713 174.687 21.5724 174.201 21.7912C173.718 22.0099 173.164 22.1193 172.539 22.1193ZM177.693 22.0938C177.435 22.0938 177.213 22.0028 177.028 21.821C176.844 21.6392 176.753 21.4176 176.756 21.1562C176.753 20.9006 176.844 20.6818 177.028 20.5C177.213 20.3182 177.435 20.2273 177.693 20.2273C177.943 20.2273 178.161 20.3182 178.345 20.5C178.533 20.6818 178.628 20.9006 178.631 21.1562C178.628 21.3295 178.582 21.4872 178.494 21.6293C178.409 21.7713 178.295 21.8849 178.153 21.9702C178.014 22.0526 177.861 22.0938 177.693 22.0938ZM182.438 13.2727V22H180.857V14.8111H180.806L178.765 16.1151V14.6662L180.934 13.2727H182.438Z" fill="white"/>
<rect x="202" width="42" height="35" rx="17.5" fill="#C4FF00" fill-opacity="0.1"/>
<path d="M214.302 15.4545L215.503 17.7429L216.735 15.4545H218.597L216.701 18.7273L218.648 22H216.795L215.503 19.7372L214.234 22H212.359L214.302 18.7273L212.427 15.4545H214.302ZM219.418 22V20.6705L222.525 17.794C222.789 17.5384 223.011 17.3082 223.19 17.1037C223.371 16.8991 223.509 16.6989 223.603 16.5028C223.697 16.304 223.744 16.0895 223.744 15.8594C223.744 15.6037 223.685 15.3835 223.569 15.1989C223.452 15.0114 223.293 14.8679 223.092 14.7685C222.89 14.6662 222.661 14.6151 222.406 14.6151C222.138 14.6151 221.906 14.669 221.707 14.777C221.508 14.8849 221.354 15.0398 221.246 15.2415C221.138 15.4432 221.085 15.6832 221.085 15.9616H219.333C219.333 15.3906 219.462 14.8949 219.721 14.4744C219.979 14.054 220.342 13.7287 220.808 13.4986C221.273 13.2685 221.81 13.1534 222.418 13.1534C223.043 13.1534 223.587 13.2642 224.05 13.4858C224.516 13.7045 224.879 14.0085 225.137 14.3977C225.396 14.7869 225.525 15.233 225.525 15.7358C225.525 16.0653 225.46 16.3906 225.329 16.7116C225.201 17.0327 224.972 17.3892 224.643 17.7812C224.313 18.1705 223.849 18.6378 223.249 19.1832L221.975 20.4318V20.4915H225.64V22H219.418ZM229.963 22.1193C229.326 22.1193 228.76 22.0099 228.262 21.7912C227.768 21.5696 227.378 21.2656 227.091 20.8793C226.807 20.4901 226.66 20.0412 226.652 19.5327H228.51C228.521 19.7457 228.591 19.9332 228.718 20.0952C228.849 20.2543 229.022 20.3778 229.238 20.4659C229.454 20.554 229.697 20.598 229.967 20.598C230.248 20.598 230.497 20.5483 230.713 20.4489C230.929 20.3494 231.098 20.2116 231.22 20.0355C231.342 19.8594 231.403 19.6562 231.403 19.4261C231.403 19.1932 231.338 18.9872 231.207 18.8082C231.079 18.6264 230.895 18.4844 230.653 18.3821C230.414 18.2798 230.13 18.2287 229.801 18.2287H228.987V16.8736H229.801C230.079 16.8736 230.325 16.8253 230.538 16.7287C230.754 16.6321 230.922 16.4986 231.041 16.3281C231.16 16.1548 231.22 15.9531 231.22 15.723C231.22 15.5043 231.167 15.3125 231.062 15.1477C230.96 14.9801 230.815 14.8494 230.628 14.7557C230.443 14.6619 230.227 14.6151 229.98 14.6151C229.73 14.6151 229.501 14.6605 229.294 14.7514C229.086 14.8395 228.92 14.9659 228.795 15.1307C228.67 15.2955 228.603 15.4886 228.595 15.7102H226.826C226.835 15.2074 226.978 14.7642 227.257 14.3807C227.535 13.9972 227.91 13.6974 228.382 13.4815C228.856 13.2628 229.392 13.1534 229.988 13.1534C230.591 13.1534 231.118 13.2628 231.569 13.4815C232.021 13.7003 232.372 13.9957 232.622 14.3679C232.875 14.7372 233 15.152 232.997 15.6122C233 16.1009 232.848 16.5085 232.541 16.8352C232.237 17.1619 231.841 17.3693 231.352 17.4574V17.5256C231.994 17.608 232.483 17.831 232.818 18.1946C233.156 18.5554 233.324 19.0071 233.321 19.5497C233.324 20.0469 233.18 20.4886 232.89 20.875C232.603 21.2614 232.207 21.5653 231.701 21.7869C231.196 22.0085 230.616 22.1193 229.963 22.1193Z" fill="#C4FF00"/>
<rect x="252" width="41" height="35" rx="17.5" fill="#C4FF00" fill-opacity="0.1"/>
<path d="M264.733 15.4545L265.935 17.7429L267.167 15.4545H269.029L267.133 18.7273L269.08 22H267.226L265.935 19.7372L264.665 22H262.79L264.733 18.7273L262.858 15.4545H264.733ZM273.647 13.2727V22H271.802V15.0241H271.751L269.752 16.277V14.6406L271.912 13.2727H273.647ZM278.669 22.1193C278.066 22.1193 277.529 22.0085 277.058 21.7869C276.589 21.5653 276.217 21.2599 275.941 20.8707C275.666 20.4815 275.522 20.0355 275.511 19.5327H277.301C277.321 19.8707 277.463 20.1449 277.727 20.3551C277.991 20.5653 278.305 20.6705 278.669 20.6705C278.958 20.6705 279.214 20.6065 279.436 20.4787C279.66 20.348 279.835 20.1676 279.96 19.9375C280.088 19.7045 280.152 19.4375 280.152 19.1364C280.152 18.8295 280.086 18.5597 279.955 18.3267C279.828 18.0937 279.65 17.9119 279.423 17.7812C279.196 17.6506 278.936 17.5838 278.643 17.581C278.387 17.581 278.139 17.6335 277.897 17.7386C277.659 17.8437 277.473 17.9872 277.339 18.169L275.698 17.875L276.112 13.2727H281.447V14.7812H277.633L277.407 16.9673H277.458C277.612 16.7514 277.843 16.5724 278.153 16.4304C278.463 16.2884 278.809 16.2173 279.193 16.2173C279.718 16.2173 280.187 16.3409 280.599 16.5881C281.011 16.8352 281.336 17.1747 281.575 17.6065C281.813 18.0355 281.931 18.5298 281.929 19.0895C281.931 19.6776 281.795 20.2003 281.519 20.6577C281.247 21.1122 280.865 21.4702 280.373 21.7315C279.884 21.9901 279.316 22.1193 278.669 22.1193Z" fill="#C4FF00"/>
<rect x="301" width="40" height="35" rx="17.5" fill="#C4FF00" fill-opacity="0.1"/>
<path d="M313.532 15.4545L314.734 17.7429L315.965 15.4545H317.828L315.931 18.7273L317.879 22H316.025L314.734 19.7372L313.464 22H311.589L313.532 18.7273L311.657 15.4545H313.532ZM322.446 13.2727V22H320.6V15.0241H320.549L318.551 16.277V14.6406L320.711 13.2727H322.446ZM324.625 22L328.243 14.8409V14.7812H324.028V13.2727H330.152V14.8026L326.53 22H324.625Z" fill="#C4FF00"/>
<rect x="349" width="45" height="35" rx="17.5" fill="#151515" fill-opacity="0.666667"/>
<path d="M361.275 15.4545L362.596 17.8707L363.939 15.4545H365.571L363.598 18.7273L365.605 22H363.981L362.596 19.6435L361.224 22H359.588L361.582 18.7273L359.639 15.4545H361.275ZM369.639 22.1193C369.025 22.1193 368.48 22.0142 368.003 21.804C367.528 21.5937 367.153 21.3011 366.878 20.9261C366.602 20.5511 366.456 20.1179 366.439 19.6264H368.041C368.055 19.8622 368.133 20.0682 368.275 20.2443C368.417 20.4176 368.606 20.5526 368.842 20.6491C369.078 20.7457 369.342 20.794 369.635 20.794C369.947 20.794 370.224 20.7401 370.466 20.6321C370.707 20.5213 370.896 20.3679 371.032 20.1719C371.169 19.9759 371.236 19.75 371.233 19.4943C371.236 19.2301 371.167 18.9972 371.028 18.7955C370.889 18.5937 370.687 18.4361 370.423 18.3224C370.162 18.2088 369.846 18.152 369.477 18.152H368.706V16.9332H369.477C369.781 16.9332 370.047 16.8807 370.274 16.7756C370.504 16.6705 370.684 16.5227 370.815 16.3324C370.946 16.1392 371.01 15.9162 371.007 15.6634C371.01 15.4162 370.954 15.2017 370.841 15.0199C370.73 14.8352 370.572 14.6918 370.368 14.5895C370.166 14.4872 369.929 14.4361 369.656 14.4361C369.389 14.4361 369.142 14.4844 368.915 14.581C368.687 14.6776 368.504 14.8153 368.365 14.9943C368.226 15.1705 368.152 15.3807 368.143 15.625H366.622C366.633 15.1364 366.774 14.7074 367.044 14.3381C367.317 13.9659 367.68 13.6761 368.135 13.4688C368.589 13.2585 369.099 13.1534 369.665 13.1534C370.247 13.1534 370.753 13.2628 371.182 13.4815C371.613 13.6974 371.947 13.9886 372.183 14.3551C372.419 14.7216 372.537 15.1264 372.537 15.5696C372.54 16.0611 372.395 16.473 372.102 16.8054C371.812 17.1378 371.432 17.3551 370.96 17.4574V17.5256C371.574 17.6108 372.044 17.8381 372.371 18.2074C372.7 18.5739 372.863 19.0298 372.861 19.5753C372.861 20.0639 372.721 20.5014 372.443 20.8878C372.167 21.2713 371.787 21.5724 371.301 21.7912C370.818 22.0099 370.264 22.1193 369.639 22.1193ZM374.793 22.0938C374.534 22.0938 374.313 22.0028 374.128 21.821C373.943 21.6392 373.852 21.4176 373.855 21.1562C373.852 20.9006 373.943 20.6818 374.128 20.5C374.313 20.3182 374.534 20.2273 374.793 20.2273C375.043 20.2273 375.26 20.3182 375.445 20.5C375.632 20.6818 375.727 20.9006 375.73 21.1562C375.727 21.3295 375.682 21.4872 375.594 21.6293C375.509 21.7713 375.395 21.8849 375.253 21.9702C375.114 22.0526 374.96 22.0938 374.793 22.0938ZM379.995 22.1193C379.426 22.1193 378.918 22.0128 378.469 21.7997C378.02 21.5838 377.664 21.2884 377.399 20.9134C377.138 20.5384 376.999 20.1094 376.982 19.6264H378.516C378.544 19.9844 378.699 20.277 378.98 20.5043C379.262 20.7287 379.6 20.8409 379.995 20.8409C380.304 20.8409 380.58 20.7699 380.821 20.6278C381.063 20.4858 381.253 20.2884 381.392 20.0355C381.532 19.7827 381.6 19.4943 381.597 19.1705C381.6 18.8409 381.53 18.5483 381.388 18.2926C381.246 18.0369 381.051 17.8366 380.804 17.6918C380.557 17.544 380.273 17.4702 379.952 17.4702C379.691 17.4673 379.434 17.5156 379.181 17.6151C378.928 17.7145 378.728 17.8452 378.58 18.0071L377.152 17.7727L377.608 13.2727H382.671V14.5938H378.916L378.665 16.9077H378.716C378.878 16.7173 379.107 16.5597 379.402 16.4347C379.698 16.3068 380.022 16.2429 380.374 16.2429C380.902 16.2429 381.374 16.3679 381.789 16.6179C382.203 16.8651 382.53 17.206 382.769 17.6406C383.007 18.0753 383.127 18.5724 383.127 19.1321C383.127 19.7088 382.993 20.223 382.726 20.6747C382.462 21.1236 382.094 21.4773 381.622 21.7358C381.154 21.9915 380.611 22.1193 379.995 22.1193Z" fill="white"/>
<rect x="402" width="45" height="35" rx="17.5" fill="#151515" fill-opacity="0.666667"/>
<path d="M414.275 15.4545L415.596 17.8707L416.939 15.4545H418.571L416.598 18.7273L418.605 22H416.981L415.596 19.6435L414.224 22H412.588L414.582 18.7273L412.639 15.4545H414.275ZM422.639 22.1193C422.025 22.1193 421.48 22.0142 421.003 21.804C420.528 21.5937 420.153 21.3011 419.878 20.9261C419.602 20.5511 419.456 20.1179 419.439 19.6264H421.041C421.055 19.8622 421.133 20.0682 421.275 20.2443C421.417 20.4176 421.606 20.5526 421.842 20.6491C422.078 20.7457 422.342 20.794 422.635 20.794C422.947 20.794 423.224 20.7401 423.466 20.6321C423.707 20.5213 423.896 20.3679 424.032 20.1719C424.169 19.9759 424.236 19.75 424.233 19.4943C424.236 19.2301 424.167 18.9972 424.028 18.7955C423.889 18.5937 423.687 18.4361 423.423 18.3224C423.162 18.2088 422.846 18.152 422.477 18.152H421.706V16.9332H422.477C422.781 16.9332 423.047 16.8807 423.274 16.7756C423.504 16.6705 423.684 16.5227 423.815 16.3324C423.946 16.1392 424.01 15.9162 424.007 15.6634C424.01 15.4162 423.954 15.2017 423.841 15.0199C423.73 14.8352 423.572 14.6918 423.368 14.5895C423.166 14.4872 422.929 14.4361 422.656 14.4361C422.389 14.4361 422.142 14.4844 421.915 14.581C421.687 14.6776 421.504 14.8153 421.365 14.9943C421.226 15.1705 421.152 15.3807 421.143 15.625H419.622C419.633 15.1364 419.774 14.7074 420.044 14.3381C420.317 13.9659 420.68 13.6761 421.135 13.4688C421.589 13.2585 422.099 13.1534 422.665 13.1534C423.247 13.1534 423.753 13.2628 424.182 13.4815C424.613 13.6974 424.947 13.9886 425.183 14.3551C425.419 14.7216 425.537 15.1264 425.537 15.5696C425.54 16.0611 425.395 16.473 425.102 16.8054C424.812 17.1378 424.432 17.3551 423.96 17.4574V17.5256C424.574 17.6108 425.044 17.8381 425.371 18.2074C425.7 18.5739 425.863 19.0298 425.861 19.5753C425.861 20.0639 425.721 20.5014 425.443 20.8878C425.167 21.2713 424.787 21.5724 424.301 21.7912C423.818 22.0099 423.264 22.1193 422.639 22.1193ZM427.793 22.0938C427.534 22.0938 427.313 22.0028 427.128 21.821C426.943 21.6392 426.852 21.4176 426.855 21.1562C426.852 20.9006 426.943 20.6818 427.128 20.5C427.313 20.3182 427.534 20.2273 427.793 20.2273C428.043 20.2273 428.26 20.3182 428.445 20.5C428.632 20.6818 428.727 20.9006 428.73 21.1562C428.727 21.3295 428.682 21.4872 428.594 21.6293C428.509 21.7713 428.395 21.8849 428.253 21.9702C428.114 22.0526 427.96 22.0938 427.793 22.0938ZM432.995 22.1193C432.426 22.1193 431.918 22.0128 431.469 21.7997C431.02 21.5838 430.664 21.2884 430.399 20.9134C430.138 20.5384 429.999 20.1094 429.982 19.6264H431.516C431.544 19.9844 431.699 20.277 431.98 20.5043C432.262 20.7287 432.6 20.8409 432.995 20.8409C433.304 20.8409 433.58 20.7699 433.821 20.6278C434.063 20.4858 434.253 20.2884 434.392 20.0355C434.532 19.7827 434.6 19.4943 434.597 19.1705C434.6 18.8409 434.53 18.5483 434.388 18.2926C434.246 18.0369 434.051 17.8366 433.804 17.6918C433.557 17.544 433.273 17.4702 432.952 17.4702C432.691 17.4673 432.434 17.5156 432.181 17.6151C431.928 17.7145 431.728 17.8452 431.58 18.0071L430.152 17.7727L430.608 13.2727H435.671V14.5938H431.916L431.665 16.9077H431.716C431.878 16.7173 432.107 16.5597 432.402 16.4347C432.698 16.3068 433.022 16.2429 433.374 16.2429C433.902 16.2429 434.374 16.3679 434.789 16.6179C435.203 16.8651 435.53 17.206 435.769 17.6406C436.007 18.0753 436.127 18.5724 436.127 19.1321C436.127 19.7088 435.993 20.223 435.726 20.6747C435.462 21.1236 435.094 21.4773 434.622 21.7358C434.154 21.9915 433.611 22.1193 432.995 22.1193Z" fill="white"/>
<rect x="455" width="45" height="35" rx="17.5" fill="#151515" fill-opacity="0.666667"/>
<path d="M467.275 15.4545L468.596 17.8707L469.939 15.4545H471.571L469.598 18.7273L471.605 22H469.981L468.596 19.6435L467.224 22H465.588L467.582 18.7273L465.639 15.4545H467.275ZM475.639 22.1193C475.025 22.1193 474.48 22.0142 474.003 21.804C473.528 21.5937 473.153 21.3011 472.878 20.9261C472.602 20.5511 472.456 20.1179 472.439 19.6264H474.041C474.055 19.8622 474.133 20.0682 474.275 20.2443C474.417 20.4176 474.606 20.5526 474.842 20.6491C475.078 20.7457 475.342 20.794 475.635 20.794C475.947 20.794 476.224 20.7401 476.466 20.6321C476.707 20.5213 476.896 20.3679 477.032 20.1719C477.169 19.9759 477.236 19.75 477.233 19.4943C477.236 19.2301 477.167 18.9972 477.028 18.7955C476.889 18.5937 476.687 18.4361 476.423 18.3224C476.162 18.2088 475.846 18.152 475.477 18.152H474.706V16.9332H475.477C475.781 16.9332 476.047 16.8807 476.274 16.7756C476.504 16.6705 476.684 16.5227 476.815 16.3324C476.946 16.1392 477.01 15.9162 477.007 15.6634C477.01 15.4162 476.954 15.2017 476.841 15.0199C476.73 14.8352 476.572 14.6918 476.368 14.5895C476.166 14.4872 475.929 14.4361 475.656 14.4361C475.389 14.4361 475.142 14.4844 474.915 14.581C474.687 14.6776 474.504 14.8153 474.365 14.9943C474.226 15.1705 474.152 15.3807 474.143 15.625H472.622C472.633 15.1364 472.774 14.7074 473.044 14.3381C473.317 13.9659 473.68 13.6761 474.135 13.4688C474.589 13.2585 475.099 13.1534 475.665 13.1534C476.247 13.1534 476.753 13.2628 477.182 13.4815C477.613 13.6974 477.947 13.9886 478.183 14.3551C478.419 14.7216 478.537 15.1264 478.537 15.5696C478.54 16.0611 478.395 16.473 478.102 16.8054C477.812 17.1378 477.432 17.3551 476.96 17.4574V17.5256C477.574 17.6108 478.044 17.8381 478.371 18.2074C478.7 18.5739 478.863 19.0298 478.861 19.5753C478.861 20.0639 478.721 20.5014 478.443 20.8878C478.167 21.2713 477.787 21.5724 477.301 21.7912C476.818 22.0099 476.264 22.1193 475.639 22.1193ZM480.793 22.0938C480.534 22.0938 480.313 22.0028 480.128 21.821C479.943 21.6392 479.852 21.4176 479.855 21.1562C479.852 20.9006 479.943 20.6818 480.128 20.5C480.313 20.3182 480.534 20.2273 480.793 20.2273C481.043 20.2273 481.26 20.3182 481.445 20.5C481.632 20.6818 481.727 20.9006 481.73 21.1562C481.727 21.3295 481.682 21.4872 481.594 21.6293C481.509 21.7713 481.395 21.8849 481.253 21.9702C481.114 22.0526 480.96 22.0938 480.793 22.0938ZM485.995 22.1193C485.426 22.1193 484.918 22.0128 484.469 21.7997C484.02 21.5838 483.664 21.2884 483.399 20.9134C483.138 20.5384 482.999 20.1094 482.982 19.6264H484.516C484.544 19.9844 484.699 20.277 484.98 20.5043C485.262 20.7287 485.6 20.8409 485.995 20.8409C486.304 20.8409 486.58 20.7699 486.821 20.6278C487.063 20.4858 487.253 20.2884 487.392 20.0355C487.532 19.7827 487.6 19.4943 487.597 19.1705C487.6 18.8409 487.53 18.5483 487.388 18.2926C487.246 18.0369 487.051 17.8366 486.804 17.6918C486.557 17.544 486.273 17.4702 485.952 17.4702C485.691 17.4673 485.434 17.5156 485.181 17.6151C484.928 17.7145 484.728 17.8452 484.58 18.0071L483.152 17.7727L483.608 13.2727H488.671V14.5938H484.916L484.665 16.9077H484.716C484.878 16.7173 485.107 16.5597 485.402 16.4347C485.698 16.3068 486.022 16.2429 486.374 16.2429C486.902 16.2429 487.374 16.3679 487.789 16.6179C488.203 16.8651 488.53 17.206 488.769 17.6406C489.007 18.0753 489.127 18.5724 489.127 19.1321C489.127 19.7088 488.993 20.223 488.726 20.6747C488.462 21.1236 488.094 21.4773 487.622 21.7358C487.154 21.9915 486.611 22.1193 485.995 22.1193Z" fill="white"/>
<rect x="508" width="45" height="35" rx="17.5" fill="#151515" fill-opacity="0.666667"/>
<path d="M520.275 15.4545L521.596 17.8707L522.939 15.4545H524.571L522.598 18.7273L524.605 22H522.981L521.596 19.6435L520.224 22H518.588L520.582 18.7273L518.639 15.4545H520.275ZM528.639 22.1193C528.025 22.1193 527.48 22.0142 527.003 21.804C526.528 21.5937 526.153 21.3011 525.878 20.9261C525.602 20.5511 525.456 20.1179 525.439 19.6264H527.041C527.055 19.8622 527.133 20.0682 527.275 20.2443C527.417 20.4176 527.606 20.5526 527.842 20.6491C528.078 20.7457 528.342 20.794 528.635 20.794C528.947 20.794 529.224 20.7401 529.466 20.6321C529.707 20.5213 529.896 20.3679 530.032 20.1719C530.169 19.9759 530.236 19.75 530.233 19.4943C530.236 19.2301 530.167 18.9972 530.028 18.7955C529.889 18.5937 529.687 18.4361 529.423 18.3224C529.162 18.2088 528.846 18.152 528.477 18.152H527.706V16.9332H528.477C528.781 16.9332 529.047 16.8807 529.274 16.7756C529.504 16.6705 529.684 16.5227 529.815 16.3324C529.946 16.1392 530.01 15.9162 530.007 15.6634C530.01 15.4162 529.954 15.2017 529.841 15.0199C529.73 14.8352 529.572 14.6918 529.368 14.5895C529.166 14.4872 528.929 14.4361 528.656 14.4361C528.389 14.4361 528.142 14.4844 527.915 14.581C527.687 14.6776 527.504 14.8153 527.365 14.9943C527.226 15.1705 527.152 15.3807 527.143 15.625H525.622C525.633 15.1364 525.774 14.7074 526.044 14.3381C526.317 13.9659 526.68 13.6761 527.135 13.4688C527.589 13.2585 528.099 13.1534 528.665 13.1534C529.247 13.1534 529.753 13.2628 530.182 13.4815C530.613 13.6974 530.947 13.9886 531.183 14.3551C531.419 14.7216 531.537 15.1264 531.537 15.5696C531.54 16.0611 531.395 16.473 531.102 16.8054C530.812 17.1378 530.432 17.3551 529.96 17.4574V17.5256C530.574 17.6108 531.044 17.8381 531.371 18.2074C531.7 18.5739 531.863 19.0298 531.861 19.5753C531.861 20.0639 531.721 20.5014 531.443 20.8878C531.167 21.2713 530.787 21.5724 530.301 21.7912C529.818 22.0099 529.264 22.1193 528.639 22.1193ZM533.793 22.0938C533.534 22.0938 533.313 22.0028 533.128 21.821C532.943 21.6392 532.852 21.4176 532.855 21.1562C532.852 20.9006 532.943 20.6818 533.128 20.5C533.313 20.3182 533.534 20.2273 533.793 20.2273C534.043 20.2273 534.26 20.3182 534.445 20.5C534.632 20.6818 534.727 20.9006 534.73 21.1562C534.727 21.3295 534.682 21.4872 534.594 21.6293C534.509 21.7713 534.395 21.8849 534.253 21.9702C534.114 22.0526 533.96 22.0938 533.793 22.0938ZM538.995 22.1193C538.426 22.1193 537.918 22.0128 537.469 21.7997C537.02 21.5838 536.664 21.2884 536.399 20.9134C536.138 20.5384 535.999 20.1094 535.982 19.6264H537.516C537.544 19.9844 537.699 20.277 537.98 20.5043C538.262 20.7287 538.6 20.8409 538.995 20.8409C539.304 20.8409 539.58 20.7699 539.821 20.6278C540.063 20.4858 540.253 20.2884 540.392 20.0355C540.532 19.7827 540.6 19.4943 540.597 19.1705C540.6 18.8409 540.53 18.5483 540.388 18.2926C540.246 18.0369 540.051 17.8366 539.804 17.6918C539.557 17.544 539.273 17.4702 538.952 17.4702C538.691 17.4673 538.434 17.5156 538.181 17.6151C537.928 17.7145 537.728 17.8452 537.58 18.0071L536.152 17.7727L536.608 13.2727H541.671V14.5938H537.916L537.665 16.9077H537.716C537.878 16.7173 538.107 16.5597 538.402 16.4347C538.698 16.3068 539.022 16.2429 539.374 16.2429C539.902 16.2429 540.374 16.3679 540.789 16.6179C541.203 16.8651 541.53 17.206 541.769 17.6406C542.007 18.0753 542.127 18.5724 542.127 19.1321C542.127 19.7088 541.993 20.223 541.726 20.6747C541.462 21.1236 541.094 21.4773 540.622 21.7358C540.154 21.9915 539.611 22.1193 538.995 22.1193Z" fill="white"/>
</svg>
