<svg width="358" height="52" viewBox="0 0 358 52" fill="none" xmlns="http://www.w3.org/2000/svg">
<path d="M0 24C0 10.7452 10.7452 0 24 0H334C347.255 0 358 10.7452 358 24V28C358 41.2548 347.255 52 334 52H24C10.7452 52 0 41.2548 0 28V24Z" fill="#15151A"/>
<path d="M99.651 31.5L96.3214 19.8636H99.0089L100.935 27.9489H101.032L103.157 19.8636H105.458L107.577 27.9659H107.679L109.606 19.8636H112.293L108.963 31.5H106.566L104.35 23.892H104.259L102.049 31.5H99.651ZM114.795 31.6648C114.239 31.6648 113.742 31.5682 113.307 31.375C112.871 31.178 112.527 30.8883 112.273 30.5057C112.023 30.1193 111.898 29.6383 111.898 29.0625C111.898 28.5777 111.987 28.1705 112.165 27.8409C112.343 27.5114 112.585 27.2462 112.892 27.0455C113.199 26.8447 113.547 26.6932 113.938 26.5909C114.331 26.4886 114.744 26.4167 115.176 26.375C115.684 26.322 116.093 26.2727 116.403 26.2273C116.714 26.178 116.939 26.1061 117.08 26.0114C117.22 25.9167 117.29 25.7765 117.29 25.5909V25.5568C117.29 25.197 117.176 24.9186 116.949 24.7216C116.725 24.5246 116.407 24.4261 115.994 24.4261C115.559 24.4261 115.212 24.5227 114.955 24.7159C114.697 24.9053 114.527 25.1439 114.443 25.4318L112.205 25.25C112.318 24.7197 112.542 24.2614 112.875 23.875C113.208 23.4848 113.638 23.1856 114.165 22.9773C114.695 22.7652 115.309 22.6591 116.006 22.6591C116.491 22.6591 116.955 22.7159 117.398 22.8295C117.845 22.9432 118.241 23.1193 118.585 23.358C118.934 23.5966 119.208 23.9034 119.409 24.2784C119.61 24.6496 119.71 25.0947 119.71 25.6136V31.5H117.415V30.2898H117.347C117.206 30.5625 117.019 30.803 116.784 31.0114C116.549 31.2159 116.267 31.3769 115.938 31.4943C115.608 31.608 115.227 31.6648 114.795 31.6648ZM115.489 29.9943C115.845 29.9943 116.159 29.9242 116.432 29.7841C116.705 29.6402 116.919 29.447 117.074 29.2045C117.229 28.9621 117.307 28.6875 117.307 28.3807V27.4545C117.231 27.5038 117.127 27.5492 116.994 27.5909C116.866 27.6288 116.72 27.6648 116.557 27.6989C116.394 27.7292 116.231 27.7576 116.068 27.7841C115.905 27.8068 115.758 27.8277 115.625 27.8466C115.341 27.8883 115.093 27.9545 114.881 28.0455C114.669 28.1364 114.504 28.2595 114.386 28.4148C114.269 28.5663 114.21 28.7557 114.21 28.983C114.21 29.3125 114.33 29.5644 114.568 29.7386C114.811 29.9091 115.117 29.9943 115.489 29.9943ZM121.268 31.5V22.7727H123.689V31.5H121.268ZM122.484 21.6477C122.124 21.6477 121.815 21.5284 121.558 21.2898C121.304 21.0473 121.177 20.7576 121.177 20.4205C121.177 20.0871 121.304 19.8011 121.558 19.5625C121.815 19.3201 122.124 19.1989 122.484 19.1989C122.844 19.1989 123.151 19.3201 123.404 19.5625C123.662 19.8011 123.791 20.0871 123.791 20.4205C123.791 20.7576 123.662 21.0473 123.404 21.2898C123.151 21.5284 122.844 21.6477 122.484 21.6477ZM129.95 22.7727V24.5909H124.694V22.7727H129.95ZM125.887 20.6818H128.307V28.8182C128.307 29.0417 128.342 29.2159 128.41 29.3409C128.478 29.4621 128.573 29.5473 128.694 29.5966C128.819 29.6458 128.963 29.6705 129.126 29.6705C129.239 29.6705 129.353 29.661 129.467 29.642C129.58 29.6193 129.667 29.6023 129.728 29.5909L130.109 31.392C129.987 31.4299 129.817 31.4735 129.597 31.5227C129.378 31.5758 129.11 31.608 128.796 31.6193C128.213 31.642 127.701 31.5644 127.262 31.3864C126.826 31.2083 126.487 30.9318 126.245 30.5568C126.003 30.1818 125.883 29.7083 125.887 29.1364V20.6818ZM131.206 31.5V22.7727H133.627V31.5H131.206ZM132.422 21.6477C132.062 21.6477 131.754 21.5284 131.496 21.2898C131.242 21.0473 131.115 20.7576 131.115 20.4205C131.115 20.0871 131.242 19.8011 131.496 19.5625C131.754 19.3201 132.062 19.1989 132.422 19.1989C132.782 19.1989 133.089 19.3201 133.343 19.5625C133.6 19.8011 133.729 20.0871 133.729 20.4205C133.729 20.7576 133.6 21.0473 133.343 21.2898C133.089 21.5284 132.782 21.6477 132.422 21.6477ZM137.666 26.4545V31.5H135.246V22.7727H137.552V24.3125H137.655C137.848 23.8049 138.172 23.4034 138.626 23.108C139.081 22.8087 139.632 22.6591 140.28 22.6591C140.886 22.6591 141.414 22.7917 141.865 23.0568C142.316 23.322 142.666 23.7008 142.916 24.1932C143.166 24.6818 143.291 25.2652 143.291 25.9432V31.5H140.871V26.375C140.874 25.8409 140.738 25.4242 140.462 25.125C140.185 24.822 139.804 24.6705 139.319 24.6705C138.994 24.6705 138.706 24.7405 138.456 24.8807C138.21 25.0208 138.016 25.2254 137.876 25.4943C137.74 25.7595 137.67 26.0795 137.666 26.4545ZM148.811 34.9545C148.026 34.9545 147.354 34.8466 146.793 34.6307C146.237 34.4186 145.793 34.1288 145.464 33.7614C145.134 33.3939 144.92 32.9811 144.822 32.5227L147.061 32.2216C147.129 32.3958 147.237 32.5587 147.384 32.7102C147.532 32.8617 147.727 32.983 147.97 33.0739C148.216 33.1686 148.515 33.2159 148.867 33.2159C149.394 33.2159 149.828 33.0871 150.168 32.8295C150.513 32.5758 150.686 32.1496 150.686 31.5511V29.9545H150.583C150.477 30.197 150.318 30.4261 150.106 30.642C149.894 30.858 149.621 31.0341 149.288 31.1705C148.954 31.3068 148.557 31.375 148.095 31.375C147.439 31.375 146.843 31.2235 146.305 30.9205C145.771 30.6136 145.345 30.1458 145.026 29.517C144.712 28.8845 144.555 28.0852 144.555 27.1193C144.555 26.1307 144.716 25.3049 145.038 24.642C145.36 23.9792 145.788 23.483 146.322 23.1534C146.86 22.8239 147.449 22.6591 148.089 22.6591C148.578 22.6591 148.987 22.7424 149.316 22.9091C149.646 23.072 149.911 23.2765 150.112 23.5227C150.316 23.7652 150.473 24.0038 150.583 24.2386H150.674V22.7727H153.078V31.5852C153.078 32.3277 152.896 32.9489 152.532 33.4489C152.168 33.9489 151.665 34.3239 151.021 34.5739C150.381 34.8277 149.644 34.9545 148.811 34.9545ZM148.862 29.5568C149.252 29.5568 149.581 29.4602 149.85 29.267C150.123 29.0701 150.331 28.7898 150.475 28.4261C150.623 28.0587 150.697 27.6193 150.697 27.108C150.697 26.5966 150.625 26.1534 150.481 25.7784C150.337 25.3996 150.129 25.1061 149.856 24.8977C149.583 24.6894 149.252 24.5852 148.862 24.5852C148.464 24.5852 148.129 24.6932 147.856 24.9091C147.583 25.1212 147.377 25.4167 147.237 25.7955C147.097 26.1742 147.026 26.6117 147.026 27.108C147.026 27.6117 147.097 28.0473 147.237 28.4148C147.381 28.7784 147.587 29.0606 147.856 29.2614C148.129 29.4583 148.464 29.5568 148.862 29.5568ZM162.76 22.7727V24.5909H157.374V22.7727H162.76ZM158.607 31.5V22.142C158.607 21.5095 158.73 20.9848 158.976 20.5682C159.226 20.1515 159.567 19.839 159.999 19.6307C160.43 19.4223 160.921 19.3182 161.47 19.3182C161.841 19.3182 162.18 19.3466 162.487 19.4034C162.798 19.4602 163.029 19.5114 163.18 19.5568L162.749 21.375C162.654 21.3447 162.537 21.3163 162.396 21.2898C162.26 21.2633 162.12 21.25 161.976 21.25C161.62 21.25 161.372 21.3333 161.232 21.5C161.091 21.6629 161.021 21.892 161.021 22.1875V31.5H158.607ZM167.549 31.6705C166.667 31.6705 165.904 31.483 165.26 31.108C164.619 30.7292 164.125 30.2027 163.777 29.5284C163.428 28.8504 163.254 28.0644 163.254 27.1705C163.254 26.2689 163.428 25.4811 163.777 24.8068C164.125 24.1288 164.619 23.6023 165.26 23.2273C165.904 22.8485 166.667 22.6591 167.549 22.6591C168.432 22.6591 169.193 22.8485 169.833 23.2273C170.477 23.6023 170.974 24.1288 171.322 24.8068C171.671 25.4811 171.845 26.2689 171.845 27.1705C171.845 28.0644 171.671 28.8504 171.322 29.5284C170.974 30.2027 170.477 30.7292 169.833 31.108C169.193 31.483 168.432 31.6705 167.549 31.6705ZM167.561 29.7955C167.962 29.7955 168.298 29.6818 168.566 29.4545C168.835 29.2235 169.038 28.9091 169.174 28.5114C169.315 28.1136 169.385 27.661 169.385 27.1534C169.385 26.6458 169.315 26.1932 169.174 25.7955C169.038 25.3977 168.835 25.0833 168.566 24.8523C168.298 24.6212 167.962 24.5057 167.561 24.5057C167.155 24.5057 166.815 24.6212 166.538 24.8523C166.265 25.0833 166.059 25.3977 165.919 25.7955C165.782 26.1932 165.714 26.6458 165.714 27.1534C165.714 27.661 165.782 28.1136 165.919 28.5114C166.059 28.9091 166.265 29.2235 166.538 29.4545C166.815 29.6818 167.155 29.7955 167.561 29.7955ZM173.099 31.5V22.7727H175.445V24.2955H175.536C175.695 23.7538 175.962 23.3447 176.337 23.0682C176.712 22.7879 177.144 22.6477 177.633 22.6477C177.754 22.6477 177.885 22.6553 178.025 22.6705C178.165 22.6856 178.288 22.7064 178.394 22.733V24.8807C178.281 24.8466 178.123 24.8163 177.923 24.7898C177.722 24.7633 177.538 24.75 177.371 24.75C177.015 24.75 176.697 24.8277 176.417 24.983C176.14 25.1345 175.921 25.3466 175.758 25.6193C175.599 25.892 175.519 26.2064 175.519 26.5625V31.5H173.099ZM185.129 26.4545V31.5H182.709V22.7727H185.016V24.3125H185.118C185.311 23.8049 185.635 23.4034 186.089 23.108C186.544 22.8087 187.095 22.6591 187.743 22.6591C188.349 22.6591 188.877 22.7917 189.328 23.0568C189.779 23.322 190.129 23.7008 190.379 24.1932C190.629 24.6818 190.754 25.2652 190.754 25.9432V31.5H188.334V26.375C188.338 25.8409 188.201 25.4242 187.925 25.125C187.648 24.822 187.267 24.6705 186.783 24.6705C186.457 24.6705 186.169 24.7405 185.919 24.8807C185.673 25.0208 185.48 25.2254 185.339 25.4943C185.203 25.7595 185.133 26.0795 185.129 26.4545ZM196.319 31.6705C195.421 31.6705 194.649 31.4886 194.001 31.125C193.357 30.7576 192.861 30.2386 192.512 29.5682C192.164 28.8939 191.99 28.0966 191.99 27.1761C191.99 26.2784 192.164 25.4905 192.512 24.8125C192.861 24.1345 193.351 23.6061 193.984 23.2273C194.62 22.8485 195.366 22.6591 196.223 22.6591C196.798 22.6591 197.334 22.7519 197.83 22.9375C198.33 23.1193 198.766 23.3939 199.137 23.7614C199.512 24.1288 199.804 24.5909 200.012 25.1477C200.221 25.7008 200.325 26.3485 200.325 27.0909V27.7557H192.955V26.2557H198.046C198.046 25.9072 197.971 25.5985 197.819 25.3295C197.668 25.0606 197.457 24.8504 197.188 24.6989C196.923 24.5436 196.615 24.4659 196.262 24.4659C195.895 24.4659 195.569 24.5511 195.285 24.7216C195.005 24.8883 194.785 25.1136 194.626 25.3977C194.467 25.678 194.385 25.9905 194.382 26.3352V27.7614C194.382 28.1932 194.461 28.5663 194.62 28.8807C194.783 29.1951 195.012 29.4375 195.308 29.608C195.603 29.7784 195.954 29.8636 196.359 29.8636C196.628 29.8636 196.874 29.8258 197.098 29.75C197.321 29.6742 197.512 29.5606 197.671 29.4091C197.83 29.2576 197.952 29.072 198.035 28.8523L200.274 29C200.16 29.5379 199.927 30.0076 199.575 30.4091C199.226 30.8068 198.776 31.1174 198.223 31.3409C197.673 31.5606 197.039 31.6705 196.319 31.6705ZM203.243 31.5L200.868 22.7727H203.317L204.67 28.6364H204.749L206.158 22.7727H208.562L209.993 28.6023H210.067L211.397 22.7727H213.84L211.471 31.5H208.908L207.408 26.0114H207.3L205.8 31.5H203.243ZM218.194 31.5V22.7727H220.541V24.2955H220.632C220.791 23.7538 221.058 23.3447 221.433 23.0682C221.808 22.7879 222.24 22.6477 222.728 22.6477C222.85 22.6477 222.98 22.6553 223.12 22.6705C223.261 22.6856 223.384 22.7064 223.49 22.733V24.8807C223.376 24.8466 223.219 24.8163 223.018 24.7898C222.817 24.7633 222.634 24.75 222.467 24.75C222.111 24.75 221.793 24.8277 221.513 24.983C221.236 25.1345 221.016 25.3466 220.853 25.6193C220.694 25.892 220.615 26.2064 220.615 26.5625V31.5H218.194ZM227.958 31.6705C227.076 31.6705 226.312 31.483 225.668 31.108C225.028 30.7292 224.534 30.2027 224.185 29.5284C223.837 28.8504 223.663 28.0644 223.663 27.1705C223.663 26.2689 223.837 25.4811 224.185 24.8068C224.534 24.1288 225.028 23.6023 225.668 23.2273C226.312 22.8485 227.076 22.6591 227.958 22.6591C228.841 22.6591 229.602 22.8485 230.242 23.2273C230.886 23.6023 231.382 24.1288 231.731 24.8068C232.079 25.4811 232.254 26.2689 232.254 27.1705C232.254 28.0644 232.079 28.8504 231.731 29.5284C231.382 30.2027 230.886 30.7292 230.242 31.108C229.602 31.483 228.841 31.6705 227.958 31.6705ZM227.97 29.7955C228.371 29.7955 228.706 29.6818 228.975 29.4545C229.244 29.2235 229.447 28.9091 229.583 28.5114C229.723 28.1136 229.793 27.661 229.793 27.1534C229.793 26.6458 229.723 26.1932 229.583 25.7955C229.447 25.3977 229.244 25.0833 228.975 24.8523C228.706 24.6212 228.371 24.5057 227.97 24.5057C227.564 24.5057 227.223 24.6212 226.947 24.8523C226.674 25.0833 226.468 25.3977 226.327 25.7955C226.191 26.1932 226.123 26.6458 226.123 27.1534C226.123 27.661 226.191 28.1136 226.327 28.5114C226.468 28.9091 226.674 29.2235 226.947 29.4545C227.223 29.6818 227.564 29.7955 227.97 29.7955ZM239.104 27.7841V22.7727H241.525V31.5H239.201V29.9148H239.11C238.913 30.4261 238.585 30.8371 238.127 31.1477C237.672 31.4583 237.117 31.6136 236.462 31.6136C235.879 31.6136 235.365 31.4811 234.922 31.2159C234.479 30.9508 234.132 30.5739 233.882 30.0852C233.636 29.5966 233.511 29.0114 233.507 28.3295V22.7727H235.928V27.8977C235.932 28.4129 236.07 28.8201 236.343 29.1193C236.615 29.4186 236.981 29.5682 237.439 29.5682C237.731 29.5682 238.004 29.5019 238.257 29.3693C238.511 29.233 238.716 29.0322 238.871 28.767C239.03 28.5019 239.108 28.1742 239.104 27.7841ZM245.561 26.4545V31.5H243.141V22.7727H245.447V24.3125H245.55C245.743 23.8049 246.067 23.4034 246.521 23.108C246.976 22.8087 247.527 22.6591 248.175 22.6591C248.781 22.6591 249.309 22.7917 249.76 23.0568C250.211 23.322 250.561 23.7008 250.811 24.1932C251.061 24.6818 251.186 25.2652 251.186 25.9432V31.5H248.766V26.375C248.769 25.8409 248.633 25.4242 248.357 25.125C248.08 24.822 247.699 24.6705 247.214 24.6705C246.889 24.6705 246.601 24.7405 246.351 24.8807C246.105 25.0208 245.911 25.2254 245.771 25.4943C245.635 25.7595 245.565 26.0795 245.561 26.4545ZM255.99 31.642C255.327 31.642 254.726 31.4716 254.188 31.1307C253.654 30.786 253.23 30.2803 252.916 29.6136C252.605 28.9432 252.45 28.1212 252.45 27.1477C252.45 26.1477 252.611 25.3163 252.933 24.6534C253.255 23.9867 253.683 23.4886 254.217 23.1591C254.755 22.8258 255.344 22.6591 255.984 22.6591C256.473 22.6591 256.88 22.7424 257.206 22.9091C257.535 23.072 257.8 23.2765 258.001 23.5227C258.206 23.7652 258.361 24.0038 258.467 24.2386H258.541V19.8636H260.956V31.5H258.569V30.1023H258.467C258.353 30.3447 258.192 30.5852 257.984 30.8239C257.779 31.0587 257.512 31.2538 257.183 31.4091C256.857 31.5644 256.459 31.642 255.99 31.642ZM256.757 29.7159C257.147 29.7159 257.476 29.6098 257.745 29.3977C258.018 29.1818 258.226 28.8807 258.37 28.4943C258.518 28.108 258.592 27.6553 258.592 27.1364C258.592 26.6174 258.52 26.1667 258.376 25.7841C258.232 25.4015 258.024 25.1061 257.751 24.8977C257.478 24.6894 257.147 24.5852 256.757 24.5852C256.359 24.5852 256.024 24.6932 255.751 24.9091C255.478 25.125 255.272 25.4242 255.132 25.8068C254.992 26.1894 254.921 26.6326 254.921 27.1364C254.921 27.6439 254.992 28.0928 255.132 28.483C255.276 28.8693 255.482 29.1723 255.751 29.392C256.024 29.608 256.359 29.7159 256.757 29.7159Z" fill="#3C3C3C"/>
</svg>
